# xmcd CD database file
#
# Track frame offsets:
#	150
#	16303
#	35420
#	51500
#	71695
#	89615
#	110118
#	126523
#	146463
#	165895
#	188710
#	217213
#
# Disc length: 3049 seconds
#
# Revision: 0
# Processed by: cddbd v1.5.1PL2 Copyright (c) Steve Scherf et al.
# Submitted via: CDex 1.51
#
DISCID=b50be70c
DTITLE=Tommy And The All Blues - Play My Blues
DYEAR=1995
DGENRE=Blues
TTITLE0=It's My Life, Baby
TTITLE1=Leaving Blues
TTITLE2=One Sunny Day
TTITLE3=Natural Ball
TTITLE4=Dust My Broom
TTITLE5=Drinking Blues
TTITLE6=Play My Blues
TTITLE7=One Step At A Time
TTITLE8=Can't Stop Loving
TTITLE9=Last Nite
TTITLE10=Roll On
TTITLE11=Lonesome Blues
EXTD=YEAR: 1995
EXTT0=
EXTT1=
EXTT2=
EXTT3=
EXTT4=
EXTT5=
EXTT6=
EXTT7=
EXTT8=
EXTT9=
EXTT10=
EXTT11=
PLAYORDER=
